<?xml version="1.0" encoding="utf-8"?>
<!-- Generator: Adobe Illustrator 12.0.0, SVG Export Plug-In . SVG Version: 6.00 Build 51448)  -->
<!DOCTYPE svg PUBLIC "-//W3C//DTD SVG 1.1//EN" "http://www.w3.org/Graphics/SVG/1.1/DTD/svg11.dtd" [
	<!ENTITY ns_svg "http://www.w3.org/2000/svg">
	<!ENTITY ns_xlink "http://www.w3.org/1999/xlink">
]>
<svg  version="1.1" id="Layer_1" xmlns="&ns_svg;" xmlns:xlink="&ns_xlink;" width="92.84" height="92.835"
	 viewBox="0 0 92.84 92.835" overflow="visible" enable-background="new 0 0 92.84 92.835" xml:space="preserve">
<g>
	<linearGradient id="XMLID_5_" gradientUnits="userSpaceOnUse" x1="16.667" y1="10.7871" x2="76.1732" y2="82.0477">
		<stop  offset="0" style="stop-color:#A1A1A1"/>
		<stop  offset="0.1842" style="stop-color:#B8B8B8"/>
		<stop  offset="0.5395" style="stop-color:#DEDEDE"/>
		<stop  offset="0.8239" style="stop-color:#F6F6F6"/>
		<stop  offset="1" style="stop-color:#FFFFFF"/>
	</linearGradient>
	<path fill="url(#XMLID_5_)" d="M46.419,4.889c22.901,0,41.533,18.629,41.533,41.528c0,22.899-18.632,41.528-41.533,41.528
		c-22.898,0-41.529-18.629-41.529-41.528C4.89,23.518,23.521,4.889,46.419,4.889 M46.419,0C20.784,0,0,20.781,0,46.417
		c0,25.636,20.784,46.417,46.419,46.417c25.638,0,46.421-20.782,46.421-46.417C92.84,20.781,72.057,0,46.419,0L46.419,0z"/>
	
		<radialGradient id="XMLID_6_" cx="1711.8369" cy="958.0654" r="29.1694" gradientTransform="matrix(1.4262 0 0 1.4262 -2394.9182 -1319.8906)" gradientUnits="userSpaceOnUse">
		<stop  offset="0.8108" style="stop-color:#545454"/>
		<stop  offset="0.842" style="stop-color:#565656"/>
		<stop  offset="0.8594" style="stop-color:#5E5E5E"/>
		<stop  offset="0.8733" style="stop-color:#6C6C6C"/>
		<stop  offset="0.8855" style="stop-color:#808080"/>
		<stop  offset="0.8965" style="stop-color:#999999"/>
		<stop  offset="0.9066" style="stop-color:#B9B9B9"/>
		<stop  offset="0.9159" style="stop-color:#DDDDDD"/>
		<stop  offset="0.9195" style="stop-color:#EDEDED"/>
		<stop  offset="0.9345" style="stop-color:#EAEAEA"/>
		<stop  offset="0.9475" style="stop-color:#DFDFDF"/>
		<stop  offset="0.9597" style="stop-color:#CDCDCD"/>
		<stop  offset="0.9715" style="stop-color:#B4B4B4"/>
		<stop  offset="0.9829" style="stop-color:#949494"/>
		<stop  offset="0.9939" style="stop-color:#6D6D6D"/>
		<stop  offset="1" style="stop-color:#545454"/>
	</radialGradient>
	<path fill="url(#XMLID_6_)" d="M46.504,10.259c19.984,0,36.245,16.259,36.245,36.242c0,19.986-16.261,36.244-36.245,36.244
		c-19.986,0-36.246-16.257-36.246-36.244C10.258,26.518,26.518,10.259,46.504,10.259 M46.504,4.901
		C23.527,4.901,4.9,23.526,4.9,46.501c0,22.976,18.627,41.602,41.604,41.602c22.975,0,41.602-18.626,41.602-41.602
		S69.479,4.901,46.504,4.901L46.504,4.901z"/>
	<g>
		<linearGradient id="XMLID_7_" gradientUnits="userSpaceOnUse" x1="24.5977" y1="20.2856" x2="68.2419" y2="72.551">
			<stop  offset="0" style="stop-color:#DBDBDB"/>
			<stop  offset="0.4737" style="stop-color:#E7E7E7"/>
			<stop  offset="1" style="stop-color:#F0F0F0"/>
		</linearGradient>
		<circle fill="url(#XMLID_7_)" cx="46.419" cy="46.417" r="34.046"/>
	</g>
	<linearGradient id="XMLID_8_" gradientUnits="userSpaceOnUse" x1="22.834" y1="18.5122" x2="69.5529" y2="74.4595">
		<stop  offset="0" style="stop-color:#FFFFFF"/>
		<stop  offset="0.1389" style="stop-color:#F6F6F6"/>
		<stop  offset="0.3634" style="stop-color:#DEDEDE"/>
		<stop  offset="0.6454" style="stop-color:#B8B8B8"/>
		<stop  offset="0.9712" style="stop-color:#828282"/>
		<stop  offset="1" style="stop-color:#7D7D7D"/>
	</linearGradient>
	<path fill="url(#XMLID_8_)" d="M46.194,13.883c17.979,0,32.604,14.625,32.604,32.603c0,17.979-14.626,32.606-32.604,32.606
		c-17.98,0-32.607-14.627-32.607-32.606C13.587,28.508,28.214,13.883,46.194,13.883 M46.194,10.044
		c-20.128,0-36.446,16.313-36.446,36.442c0,20.126,16.318,36.444,36.446,36.444c20.127,0,36.443-16.317,36.443-36.444
		C82.638,26.357,66.321,10.044,46.194,10.044L46.194,10.044z"/>
</g>
<polygon fill="#535353" points="70.739,42.602 49.555,42.602 49.555,21.417 43.403,21.417 43.403,42.602 22.22,42.602 22.22,48.753 
	43.403,48.753 43.403,69.937 49.555,69.937 49.555,48.753 70.739,48.753 "/>
</svg>
