<?xml version="1.0" encoding="utf-8"?>
<!-- Generator: Adobe Illustrator 12.0.0, SVG Export Plug-In . SVG Version: 6.00 Build 51448)  -->
<!DOCTYPE svg PUBLIC "-//W3C//DTD SVG 1.1//EN" "http://www.w3.org/Graphics/SVG/1.1/DTD/svg11.dtd" [
	<!ENTITY ns_svg "http://www.w3.org/2000/svg">
	<!ENTITY ns_xlink "http://www.w3.org/1999/xlink">
]>
<svg  version="1.1" id="Ebene_1" xmlns="&ns_svg;" xmlns:xlink="&ns_xlink;" width="20.539" height="19.536"
	 viewBox="0 0 20.539 19.536" overflow="visible" enable-background="new 0 0 20.539 19.536" xml:space="preserve">
<g transform="translate(-1.731 -2.214)">
	<g transform="translate(2.5 3)">
		<path fill="#D60000" d="M9.261,17.854c-2.173-1.338-4.192-2.91-6.022-4.688C1.95,11.88,0.969,10.32,0.373,8.6
			C-0.7,5.25,0.554,1.421,4.071,0.288C5.921-0.309,7.946,0.031,9.5,1.2l0,0c1.553-1.165,3.572-1.504,5.421-0.912
			C18.438,1.421,19.7,5.25,18.628,8.6c-0.596,1.722-1.575,3.284-2.866,4.569c-1.83,1.777-3.85,3.348-6.022,4.685L9.505,18
			L9.261,17.854z"/>
		<path fill="#FFFFFF" d="M13.879,2.599c1.472,0.476,2.511,1.79,2.637,3.331"/>
	</g>
</g>
</svg>
